<?xml version="1.0" standalone="no"?> <!DOCTYPE svg PUBLIC "-//W3C//DTD SVG 20010904//EN" "http://www.w3.org/TR/2001/REC-SVG-20010904/DTD/svg10.dtd"> <svg version="1.0" xmlns="http://www.w3.org/2000/svg" width="600.000000pt" height="189.000000pt" viewBox="0 0 600.000000 189.000000" preserveAspectRatio="xMidYMid meet"> <g transform="translate(0.000000,189.000000) scale(0.100000,-0.100000)" fill="#8b7355" stroke="none"> <path d="M405 1286 c-125 -29 -220 -88 -254 -158 -38 -80 -22 -136 45 -158 61 -21 96 -7 146 59 67 85 115 106 243 106 142 0 184 -28 201 -132 l6 -42 -43 -11 c-24 -7 -134 -30 -244 -51 -261 -51 -288 -60 -350 -123 -59 -58 -82 -120 -71 -187 39 -242 381 -313 665 -139 26 17 52 30 57 30 5 -1 24 -21 42 -45 64 -87 148 -105 214 -46 37 33 39 59 9 156 -18 58 -21 93 -21 254 0 207 -10 281 -46 354 -28 54 -87 98 -169 124 -70 22 -348 28 -430 9z m385 -518 c0 -163 -86 -247 -260 -256 -77 -3 -88 -2 -120 20 -50 34 -75 88 -60 133 18 54 64 75 255 116 94 20 173 37 178 38 4 0 7 -23 7 -51z"/> <path d="M1473 1289 c-95 -16 -164 -49 -219 -104 -106 -105 -97 -241 19 -321 63 -43 132 -68 314 -114 83 -21 159 -43 170 -48 56 -31 79 -102 43 -139 -42 -45 -79 -57 -175 -57 -119 0 -168 23 -236 110 -54 68 -63 74 -119 74 -27 0 -48 -8 -70 -27 -30 -25 -32 -30 -28 -75 15 -157 254 -259 534 -229 237 25 364 124 364 283 0 74 -26 128 -82 169 -66 47 -121 68 -298 110 -91 22 -182 47 -203 56 -162 71 2 213 187 162 25 -7 63 -34 106 -74 75 -70 114 -85 174 -65 94 31 86 136 -14 209 -98 71 -307 107 -467 80z"/> <path d="M2183 1286 c-45 -20 -67 -58 -61 -104 3 -21 65 -168 138 -328 173 -379 203 -436 239 -467 64 -53 168 -44 221 21 48 57 360 744 360 792 0 71 -88 118 -164 86 -44 -18 -63 -57 -217 -428 -51 -125 -97 -224 -101 -220 -4 4 -57 130 -118 281 -118 292 -140 341 -163 359 -23 20 -98 24 -134 8z"/> <path d="M3423 1285 c-94 -21 -178 -62 -222 -110 -40 -44 -67 -111 -56 -144 11 -34 53 -63 99 -68 l45 -5 78 80 c73 74 82 80 138 92 82 17 199 9 233 -17 34 -25 62 -79 62 -120 0 -38 -1 -39 -230 -83 -268 -53 -296 -60 -351 -93 -79 -47 -112 -101 -117 -187 -5 -85 19 -142 81 -195 65 -56 135 -78 252 -78 133 -1 233 30 357 109 l26 18 52 -57 c70 -76 110 -89 177 -56 67 33 74 58 43 152 -22 66 -25 93 -30 312 -5 223 -7 244 -28 290 -44 95 -112 141 -246 165 -82 14 -288 11 -363 -5z m383 -517 c-15 -123 -18 -130 -58 -174 -51 -55 -124 -84 -214 -84 -107 0 -174 48 -174 125 0 75 53 105 255 144 87 18 161 34 164 36 2 3 11 5 19 5 11 0 13 -11 8 -52z"/> <path d="M4303 1285 c-17 -7 -40 -26 -50 -41 -17 -26 -18 -57 -18 -420 0 -382 1 -393 21 -421 45 -60 151 -64 205 -7 24 25 24 30 30 252 7 250 21 331 66 390 46 61 116 76 223 47 80 -21 105 -19 142 14 41 36 44 88 8 126 -38 40 -124 68 -210 69 -91 0 -125 -16 -192 -88 -47 -50 -48 -50 -48 -23 0 43 -28 87 -65 103 -42 17 -71 17 -112 -1z"/> <path d="M5222 1285 c-169 -38 -272 -127 -272 -234 0 -46 30 -76 85 -87 51 -9 78 5 130 69 69 85 107 101 235 102 147 0 184 -25 205 -137 7 -36 6 -37 -32 -47 -21 -6 -110 -24 -198 -41 -297 -57 -345 -72 -406 -133 -133 -134 -66 -340 131 -403 72 -24 214 -23 295 0 33 10 98 38 144 62 l83 45 52 -55 c77 -83 131 -94 204 -39 39 29 42 63 11 149 -20 53 -22 82 -24 284 -3 240 -10 288 -56 355 -29 41 -89 81 -154 101 -71 23 -348 29 -433 9z m385 -536 c-10 -124 -56 -185 -166 -224 -55 -19 -163 -20 -199 -1 -52 27 -77 64 -77 113 0 39 5 49 34 74 23 18 58 33 105 44 39 8 118 26 176 39 58 13 111 24 119 25 11 1 13 -13 8 -70z"/> </g> </svg>