<?xml version="1.0" standalone="no"?> <!DOCTYPE svg PUBLIC "-//W3C//DTD SVG 20010904//EN" "http://www.w3.org/TR/2001/REC-SVG-20010904/DTD/svg10.dtd"> <svg version="1.0" xmlns="http://www.w3.org/2000/svg" width="1800.000000pt" height="840.000000pt" viewBox="0 0 1800.000000 840.000000" preserveAspectRatio="xMidYMid meet"> <g transform="translate(0.000000,840.000000) scale(0.100000,-0.100000)" fill="#8b7355" stroke="none"> <path d="M13755 8391 c10 -17 -12 -21 -157 -30 -79 -5 -172 -14 -208 -20 -173 -28 -210 -34 -275 -45 -77 -14 -276 -62 -315 -76 -14 -5 -59 -18 -100 -30 -41 -12 -100 -31 -130 -42 -30 -11 -71 -24 -90 -30 -19 -5 -39 -14 -45 -19 -5 -5 -16 -9 -25 -9 -8 0 -28 -7 -44 -15 -15 -8 -32 -15 -37 -15 -34 0 -522 -247 -584 -295 -10 -8 -22 -15 -26 -15 -12 0 -306 -199 -338 -228 -7 -7 -26 -21 -40 -30 -28 -18 -28 -19 -136 -108 -355 -296 -487 -486 -502 -723 -6 -103 20 -229 70 -331 33 -68 152 -200 198 -220 13 -5 38 -18 54 -29 111 -67 318 -85 455 -38 41 14 89 31 105 38 44 20 201 115 250 152 24 18 53 39 65 47 13 8 58 42 101 75 76 59 92 70 234 169 427 298 965 483 1494 515 164 9 442 5 516 -9 28 -5 77 -12 110 -15 64 -7 165 -27 255 -51 30 -8 73 -20 95 -26 55 -14 153 -47 192 -64 17 -8 36 -14 41 -14 6 0 23 -7 39 -15 15 -8 71 -35 125 -60 383 -178 763 -504 1012 -869 101 -148 213 -347 276 -491 12 -27 27 -63 35 -80 7 -16 20 -52 29 -80 9 -27 21 -59 26 -70 5 -11 14 -38 20 -60 6 -22 18 -62 26 -90 37 -123 69 -271 89 -419 8 -61 17 -117 19 -125 3 -9 8 -92 11 -186 9 -246 -11 -496 -58 -735 -19 -97 -65 -271 -76 -290 -5 -9 -12 -30 -16 -49 -4 -18 -13 -44 -21 -59 -8 -15 -14 -34 -14 -42 0 -9 -4 -20 -8 -25 -5 -6 -17 -32 -27 -60 -18 -50 -102 -224 -145 -300 -146 -260 -402 -572 -610 -746 -36 -30 -67 -57 -70 -60 -21 -24 -224 -167 -305 -215 -135 -79 -334 -176 -393 -190 -15 -4 -31 -10 -37 -14 -5 -5 -27 -11 -48 -15 -20 -4 -39 -11 -42 -15 -3 -5 -24 -11 -48 -15 -23 -4 -46 -10 -52 -14 -5 -4 -46 -15 -90 -25 -44 -10 -107 -24 -140 -31 -122 -28 -274 -40 -525 -40 -290 0 -471 20 -705 79 -33 8 -82 20 -110 27 -27 6 -54 15 -60 19 -5 4 -23 10 -40 14 -35 8 -152 51 -212 77 -23 11 -45 19 -49 19 -17 0 -272 131 -384 198 -112 67 -303 202 -370 261 -14 12 -38 34 -55 48 -126 109 -242 220 -450 428 -228 228 -294 296 -479 495 -100 108 -429 452 -521 545 -38 39 -180 184 -315 324 -135 139 -301 310 -369 379 -142 146 -577 594 -666 686 -33 34 -199 206 -370 381 -402 414 -371 381 -660 680 -317 328 -454 472 -536 560 -200 217 -549 569 -699 704 -150 135 -158 141 -235 201 -38 30 -72 57 -75 60 -8 9 -120 93 -180 135 -146 102 -474 283 -635 350 -16 7 -41 18 -55 23 -14 6 -50 21 -80 32 -30 12 -62 25 -70 30 -9 4 -31 11 -50 15 -19 4 -41 11 -50 16 -15 8 -99 35 -155 50 -281 75 -381 94 -675 131 -138 17 -742 18 -860 1 -47 -7 -119 -17 -160 -22 -101 -14 -231 -37 -312 -56 -38 -8 -96 -21 -130 -29 -35 -8 -85 -21 -113 -30 -27 -8 -68 -20 -90 -26 -93 -27 -325 -107 -400 -140 -22 -9 -56 -23 -75 -31 -41 -17 -382 -188 -427 -215 -235 -139 -368 -230 -558 -380 -184 -146 -433 -392 -570 -564 -33 -41 -62 -77 -65 -80 -23 -21 -121 -157 -192 -265 -113 -173 -227 -377 -292 -525 -16 -36 -39 -87 -51 -115 -12 -27 -43 -106 -68 -175 -118 -325 -183 -601 -218 -920 -5 -52 -15 -138 -20 -190 -19 -172 2 -786 30 -898 5 -20 12 -64 16 -97 3 -33 10 -76 15 -95 4 -19 16 -71 25 -115 9 -44 21 -98 27 -120 31 -128 38 -155 51 -200 30 -100 68 -220 76 -235 5 -9 12 -30 15 -48 4 -17 12 -34 17 -37 5 -4 9 -13 9 -21 0 -14 30 -90 50 -126 6 -10 10 -23 10 -28 0 -6 18 -50 41 -98 22 -48 50 -107 62 -132 54 -117 207 -385 282 -494 49 -71 280 -382 297 -400 7 -7 47 -51 88 -97 124 -137 312 -321 405 -396 179 -142 215 -170 234 -183 13 -8 46 -32 74 -52 48 -36 190 -124 315 -196 60 -34 288 -147 357 -176 22 -10 49 -21 60 -26 49 -21 206 -78 260 -95 33 -9 68 -22 78 -27 10 -5 37 -13 60 -18 23 -5 78 -18 122 -30 115 -30 228 -53 420 -85 49 -8 96 -17 104 -20 7 -3 77 -11 155 -17 260 -22 721 -11 863 21 27 6 75 15 108 20 129 21 371 81 407 101 10 6 24 10 32 10 22 0 232 79 371 140 70 31 306 147 335 165 19 12 66 38 103 59 274 147 759 510 1126 841 205 185 701 678 992 985 493 522 574 591 762 654 105 35 238 10 377 -73 41 -24 77 -47 80 -50 3 -3 37 -32 75 -63 64 -52 505 -491 721 -717 49 -52 123 -128 165 -171 42 -42 125 -133 184 -201 136 -155 434 -453 580 -579 61 -52 112 -97 115 -101 3 -3 64 -50 135 -104 72 -55 132 -102 135 -105 3 -3 19 -14 35 -26 17 -11 62 -42 100 -69 201 -140 568 -340 815 -443 87 -37 248 -96 290 -107 14 -3 34 -10 45 -15 11 -4 40 -14 65 -20 25 -6 70 -18 100 -26 30 -9 80 -21 110 -28 30 -8 62 -16 70 -20 8 -3 42 -10 75 -15 33 -5 87 -14 120 -20 206 -36 305 -43 605 -43 168 1 341 6 385 11 44 6 118 15 165 21 47 6 103 15 125 20 22 5 76 16 120 25 75 16 105 23 245 62 75 21 181 53 205 63 11 4 49 18 85 31 36 13 76 29 90 36 14 7 30 13 37 13 6 0 24 6 40 14 15 8 102 51 193 95 210 103 349 180 378 208 7 7 19 13 27 13 7 0 15 4 17 8 2 4 21 19 43 32 22 13 45 28 50 32 6 5 73 54 150 111 77 57 176 134 220 172 101 87 414 398 480 477 28 33 67 81 89 107 21 25 45 55 55 66 9 11 24 32 33 46 9 14 23 33 30 40 14 15 20 25 109 154 86 125 210 337 287 490 64 128 87 177 128 275 8 19 19 43 24 52 6 10 10 23 10 30 1 7 9 31 20 53 11 22 19 46 20 53 0 7 4 20 9 30 12 22 33 87 61 182 12 41 25 86 30 100 10 29 42 162 64 265 37 175 46 228 46 263 0 20 5 53 10 72 30 104 31 811 1 976 -6 32 -15 91 -21 129 -25 179 -114 547 -160 660 -4 11 -25 67 -46 125 -20 58 -41 109 -46 114 -4 6 -8 15 -8 22 0 39 -182 399 -308 609 -103 172 -356 522 -452 625 -8 9 -46 52 -84 96 -111 127 -313 322 -426 412 -58 46 -116 94 -130 106 -14 12 -47 37 -75 56 -27 19 -54 38 -60 43 -24 19 -201 131 -267 168 -64 35 -329 167 -383 189 -83 36 -256 99 -340 125 -33 10 -69 22 -80 26 -11 5 -40 13 -65 19 -25 5 -74 16 -110 25 -125 32 -209 47 -455 84 -38 6 -106 11 -150 12 -95 2 -141 11 -137 27 1 9 -47 12 -194 12 -118 0 -193 -4 -189 -9z m-9279 -1311 c165 -25 330 -61 364 -79 9 -5 30 -12 49 -16 18 -4 44 -13 59 -21 15 -8 33 -14 40 -14 7 0 20 -4 30 -10 26 -14 110 -50 118 -50 34 0 507 -264 627 -350 89 -64 382 -283 387 -289 3 -4 27 -25 55 -46 54 -43 68 -56 220 -191 201 -178 473 -448 942 -930 138 -142 291 -300 340 -349 398 -406 396 -638 -11 -1062 -151 -158 -1214 -1223 -1316 -1319 -131 -123 -300 -276 -427 -386 -17 -15 -55 -44 -85 -64 -29 -21 -75 -54 -103 -74 -66 -48 -204 -129 -322 -189 -167 -86 -315 -144 -495 -195 -272 -77 -445 -105 -703 -112 -346 -11 -624 25 -940 120 -100 30 -134 41 -141 49 -4 4 -14 7 -22 7 -8 0 -28 6 -45 14 -18 8 -60 26 -95 41 -73 30 -228 100 -255 116 -10 5 -48 26 -85 46 -37 19 -86 49 -110 64 -24 16 -45 29 -47 29 -10 0 -235 161 -271 195 -6 5 -26 23 -45 39 -130 112 -193 174 -282 275 -56 64 -108 122 -115 130 -7 8 -21 26 -30 40 -9 14 -35 51 -58 81 -59 79 -147 226 -215 361 -33 64 -59 120 -59 124 0 4 -6 21 -14 38 -44 96 -56 127 -56 141 0 8 -4 17 -9 20 -5 3 -12 23 -16 43 -4 21 -10 43 -15 48 -4 6 -12 30 -18 55 -6 25 -18 72 -27 105 -20 73 -41 183 -55 290 -6 44 -16 116 -21 160 -13 93 -7 448 10 575 19 149 50 300 91 445 15 52 69 214 80 240 5 11 16 38 26 60 23 55 83 187 93 205 65 122 88 162 112 198 16 24 29 45 29 48 0 4 133 189 157 219 5 6 34 42 65 80 108 136 307 326 487 466 87 68 350 239 366 239 3 0 40 19 82 43 43 23 119 60 168 80 50 21 98 42 107 47 10 6 23 10 30 10 7 0 25 6 40 14 15 8 42 17 60 21 18 4 38 11 43 15 25 18 293 82 450 106 235 37 553 39 781 4z"/> <path d="M9965 5984 c-68 -11 -203 -68 -274 -116 -122 -83 -223 -231 -252 -368 -23 -114 -14 -290 19 -357 5 -10 17 -36 28 -58 91 -197 279 -331 511 -366 207 -31 448 67 585 239 23 30 76 129 99 187 83 209 25 498 -131 646 -89 84 -180 140 -280 174 -54 18 -237 29 -305 19z"/> </g> </svg>